<svg xmlns="http://www.w3.org/2000/svg" width="258" height="261" viewBox="0 0 258 261"><defs><mask id="4szib" width="2.11" height="2.1" x="-1.05" y="-1.05"><path fill="#fff" d="M24 24h210v213H24z"/><path d="M167.95 226.94l-78.433.004-55.463-56.362-.005-79.712L89.507 34.5l78.433-.004 55.463 56.362.005 79.712z"/></mask><filter id="4szia" width="290" height="293" x="-16" y="-16" filterUnits="userSpaceOnUse"><feOffset in="SourceGraphic" result="FeOffset1095Out"/><feGaussianBlur in="FeOffset1095Out" result="FeGaussianBlur1096Out" stdDeviation="12 12"/></filter></defs><g><g><g filter="url(#4szia)"><path fill="none" stroke="#dcdeed" stroke-opacity=".18" stroke-width="20" d="M167.95 226.94v0l-78.433.004v0l-55.463-56.362v0l-.005-79.712v0L89.507 34.5v0l78.433-.004v0l55.463 56.362v0l.005 79.712v0z" mask="url(&quot;#4szib&quot;)"/><path fill="#dcdeed" fill-opacity=".18" d="M167.95 226.94l-78.433.004-55.463-56.362-.005-79.712L89.507 34.5l78.433-.004 55.463 56.362.005 79.712z"/></g><path fill="#fff" d="M167.95 226.94l-78.433.004-55.463-56.362-.005-79.712L89.507 34.5l78.433-.004 55.463 56.362.005 79.712z"/></g></g></svg>