<svg xmlns="http://www.w3.org/2000/svg" width="98" height="98" viewBox="0 0 98 98"><defs><linearGradient id="5kgua" x1="49.81" x2="48.87" y1="83.68" y2="14.72" gradientUnits="userSpaceOnUse"><stop offset="0" stop-color="#c20e1a"/><stop offset="1" stop-color="#f5484e"/></linearGradient><filter id="5kgub" width="200%" height="200%" x="-50%" y="-50%"><feGaussianBlur in="SourceGraphic" result="FeGaussianBlur1046Out" stdDeviation="0 0"/></filter><mask id="5kguc"><path fill="#fff" d="M45.766 38.23l13.941 10.375L45.766 58.98z"/></mask></defs><g><g><g opacity=".05"><path fill="#fff" d="M49.031-.125c27.08 0 49.031 21.952 49.031 49.031 0 27.08-21.952 49.031-49.03 49.031C21.951 97.937 0 75.985 0 48.907 0 21.826 21.952-.126 49.03-.126z"/></g><g><path fill="red" d="M49.339 14.72c19.035 0 34.466 15.438 34.466 34.48 0 19.043-15.431 34.48-34.466 34.48-19.035 0-34.466-15.437-34.466-34.48 0-19.042 15.43-34.48 34.466-34.48z"/><path fill="url(#5kgua)" d="M49.339 14.72c19.035 0 34.466 15.438 34.466 34.48 0 19.043-15.431 34.48-34.466 34.48-19.035 0-34.466-15.437-34.466-34.48 0-19.042 15.43-34.48 34.466-34.48z"/></g><g><path fill="#e2d482" d="M45.766 38.23l13.941 10.375L45.766 58.98z"/><path fill="#fffdf6" d="M45 61V36h15v25zm.766-.02l13.941-10.375L45.766 40.23z" filter="url(#5kgub)" mask="url(&quot;#5kguc&quot;)"/></g></g></g></svg>